<svg xmlns="http://www.w3.org/2000/svg" xmlns:xlink="http://www.w3.org/1999/xlink" version="1.1" x="0px" y="0px" viewBox="0 0 100 100" enable-background="new 0 0 100 100" xml:space="preserve"><g><path d="M77.183,35.687c-0.58,0-1.167,0.041-1.758,0.122C73.63,25.479,64.714,17.882,54.05,17.882   c-8.508,0-16.196,5.011-19.705,12.652c-2.767-1.745-5.998-2.689-9.281-2.689c-9.595,0-17.4,7.806-17.4,17.4s7.805,17.4,17.398,17.4   c0.829,0,1.5-0.672,1.5-1.5s-0.671-1.5-1.5-1.5c-7.939,0-14.398-6.46-14.398-14.4s6.46-14.4,14.4-14.4   c3.313,0,6.43,1.1,9.017,3.181c0.38,0.305,0.883,0.406,1.35,0.274c0.468-0.134,0.842-0.484,1.004-0.943   c2.638-7.462,9.717-12.475,17.615-12.475c9.668,0,17.669,7.245,18.611,16.854c0.042,0.437,0.275,0.833,0.635,1.084   c0.361,0.252,0.814,0.334,1.237,0.221c0.897-0.234,1.789-0.354,2.65-0.354c5.779,0,10.48,4.701,10.48,10.48   c0,5.778-4.702,10.479-10.48,10.479c-0.829,0-1.5,0.672-1.5,1.5s0.671,1.5,1.5,1.5c7.433,0,13.48-6.047,13.48-13.479   C90.663,41.733,84.616,35.687,77.183,35.687z"/><path d="M68.624,50.259c-3.073,0-5.71,2.293-6.134,5.334c-0.114,0.82,0.458,1.578,1.279,1.692c0.82,0.112,1.578-0.458,1.693-1.278   c0.218-1.566,1.578-2.748,3.163-2.748c1.761,0,3.193,1.433,3.193,3.193c0,1.76-1.433,3.191-3.193,3.191H30.112   c-0.829,0-1.5,0.672-1.5,1.5s0.671,1.5,1.5,1.5h38.512c3.415,0,6.193-2.777,6.193-6.191C74.817,53.037,72.039,50.259,68.624,50.259   z"/><path d="M54.368,54.997H30.112c-0.829,0-1.5,0.672-1.5,1.5s0.671,1.5,1.5,1.5h24.256c3.415,0,6.193-2.777,6.193-6.191   c0-3.415-2.778-6.193-6.193-6.193c-3.075,0-5.712,2.293-6.134,5.333c-0.114,0.82,0.459,1.578,1.28,1.691   c0.815,0.112,1.578-0.458,1.692-1.279c0.217-1.565,1.577-2.745,3.163-2.745c1.761,0,3.193,1.433,3.193,3.193   C57.562,53.565,56.129,54.997,54.368,54.997z"/><path d="M54.368,64.294H30.112c-0.829,0-1.5,0.672-1.5,1.5s0.671,1.5,1.5,1.5h24.256c1.761,0,3.193,1.432,3.193,3.191   c0,1.762-1.433,3.195-3.193,3.195c-1.586,0-2.945-1.182-3.163-2.749c-0.114-0.821-0.878-1.396-1.692-1.279   c-0.82,0.113-1.394,0.871-1.28,1.691c0.422,3.042,3.059,5.337,6.134,5.337c3.415,0,6.193-2.779,6.193-6.195   C60.562,67.071,57.783,64.294,54.368,64.294z"/></g></svg>