<svg xmlns="http://www.w3.org/2000/svg" xmlns:xlink="http://www.w3.org/1999/xlink" version="1.1" x="0px" y="0px" viewBox="0 0 100 100" enable-background="new 0 0 100 100" xml:space="preserve"><path fill="#000000" d="M147.661,25.621"/><path d="M82.37,50.999c-1.745,0-3.422,0.49-4.897,1.424c-1.438-3.332-4.09-5.886-7.271-7.167c-1.593-4.673-5.845-8.032-10.842-8.032  c-2.176,0-4.263,0.628-6.087,1.823c-2.518-6.018-8.277-10-14.601-10c-6.061,0-11.582,3.608-14.266,9.256  c-1.489-0.707-3.12-1.079-4.761-1.079c-6.353,0-11.521,5.419-11.521,12.08c0,6.661,5.169,12.079,11.521,12.079  c3.04,0,5.957-1.267,8.107-3.5c2.967,2.934,6.818,4.541,10.92,4.541c0.659,0,1.312-0.047,1.956-0.13  c0.618,4.879,4.599,8.659,9.416,8.659H82.37c5.243,0,9.508-4.476,9.508-9.977C91.878,55.475,87.612,50.999,82.37,50.999z   M40.537,60.735c-0.614,0.082-1.236,0.129-1.865,0.129c-3.972,0-7.682-1.642-10.446-4.623l-0.512-0.552l-0.49,0.576  c-1.921,2.26-4.684,3.557-7.579,3.557c-5.577,0-10.115-4.719-10.115-10.52s4.537-10.52,10.115-10.52c1.662,0,3.311,0.43,4.77,1.244  l0.646,0.36l0.307-0.727c2.319-5.5,7.541-9.054,13.304-9.054c6.051,0,11.527,3.97,13.627,9.879l0.326,0.917l0.73-0.562  c1.749-1.346,3.826-2.057,6.005-2.057c3.985,0,7.43,2.416,9.077,5.908c0.001,0.002,0.001,0.004,0.002,0.005  c-0.915-0.212-1.857-0.327-2.817-0.327c-4.959,0-9.482,2.917-11.719,7.494c-1.203-0.55-2.514-0.838-3.832-0.838  C44.892,51.025,40.674,55.359,40.537,60.735z M82.37,69.393H50.044c-4.115,0-7.515-3.206-8.028-7.339  c-0.044-0.354-0.074-0.713-0.074-1.079c0-0.17,0.015-0.336,0.025-0.504c-0.001,0-0.002,0-0.003,0.001  c0.266-4.394,3.795-7.887,8.108-7.887c1.338,0,2.665,0.344,3.839,0.996l0.649,0.36l0.308-0.727  c1.874-4.426,6.095-7.286,10.754-7.286c1.197,0,2.365,0.196,3.473,0.555c0,0.002,0.001,0.003,0.002,0.005  c0.548,0.184,1.08,0.408,1.593,0.672c2.633,1.353,4.754,3.717,5.811,6.691l0.326,0.916l0.73-0.561  c1.402-1.078,3.067-1.648,4.813-1.648c4.467,0,8.101,3.776,8.101,8.417C90.471,65.618,86.837,69.393,82.37,69.393z"/></svg>