<svg xmlns="http://www.w3.org/2000/svg" xmlns:xlink="http://www.w3.org/1999/xlink" version="1.1" x="0px" y="0px" viewBox="0 0 100 100" enable-background="new 0 0 100 100" xml:space="preserve"><g><g><g><g><path d="M61.379,57.611c-0.217,0-0.437-0.047-0.646-0.146c-0.824-0.394-2.79-0.918-5.615-1.099      c-2.637-0.169-3.657-0.136-5.812,0.408c-2.524,0.669-4.062,0.662-6.735,0.492c-2.763-0.174-5.275-0.693-6.722-1.389      c-0.746-0.358-1.061-1.255-0.701-2.002c0.358-0.745,1.253-1.061,2.002-0.701c0.821,0.395,2.784,0.92,5.611,1.098      c2.623,0.167,3.77,0.134,5.794-0.402c2.654-0.669,4.094-0.667,6.753-0.498c2.761,0.177,5.271,0.695,6.718,1.386      c0.747,0.357,1.064,1.252,0.707,2C62.476,57.297,61.938,57.611,61.379,57.611z"/></g></g><g><g><path d="M61.438,63.582c-0.217,0-0.438-0.047-0.646-0.146c-0.823-0.395-2.788-0.918-5.615-1.1      c-2.631-0.167-3.652-0.138-5.81,0.408c-2.533,0.672-4.068,0.664-6.737,0.494c-2.763-0.178-5.274-0.696-6.718-1.388      c-0.747-0.357-1.063-1.254-0.704-2.001c0.357-0.747,1.254-1.063,2.001-0.704c0.821,0.394,2.784,0.917,5.612,1.099      c2.622,0.167,3.765,0.134,5.795-0.404c2.66-0.672,4.099-0.666,6.752-0.498c2.762,0.177,5.273,0.695,6.719,1.387      c0.747,0.357,1.063,1.254,0.706,2.001C62.535,63.268,61.998,63.582,61.438,63.582z"/></g></g><g><g><path d="M61.499,69.552c-0.217,0-0.437-0.047-0.645-0.146c-0.829-0.395-2.797-0.92-5.617-1.1      c-2.639-0.167-3.657-0.137-5.812,0.408c-2.526,0.669-4.064,0.664-6.734,0.494c-2.764-0.177-5.275-0.696-6.721-1.389      c-0.747-0.357-1.063-1.254-0.704-2.001c0.358-0.748,1.255-1.063,2.001-0.704c0.822,0.394,2.786,0.918,5.614,1.1      c2.627,0.167,3.768,0.132,5.793-0.404c2.657-0.672,4.097-0.666,6.754-0.498c2.754,0.176,5.265,0.694,6.717,1.387      c0.748,0.356,1.065,1.251,0.708,1.999C62.597,69.236,62.06,69.552,61.499,69.552z"/></g></g></g><g><g><g><path d="M77.183,62.646H66.415c-0.828,0-1.5-0.672-1.5-1.5s0.672-1.5,1.5-1.5h10.768c5.779,0,10.48-4.7,10.48-10.479      c0-5.779-4.701-10.48-10.48-10.48c-0.861,0-1.753,0.119-2.649,0.354c-0.423,0.113-0.877,0.031-1.237-0.221      c-0.36-0.251-0.593-0.647-0.636-1.084c-0.941-9.608-8.941-16.854-18.608-16.854c-7.899,0-14.979,5.013-17.617,12.475      c-0.162,0.459-0.536,0.81-1.004,0.943c-0.469,0.133-0.972,0.03-1.351-0.274c-2.586-2.081-5.704-3.181-9.017-3.181      c-7.94,0-14.4,6.46-14.4,14.4s6.46,14.4,14.4,14.4h6.85c0.828,0,1.5,0.672,1.5,1.5s-0.672,1.5-1.5,1.5h-6.85      c-9.595,0-17.4-7.806-17.4-17.4s7.806-17.4,17.4-17.4c3.337,0,6.51,0.923,9.283,2.686c3.51-7.64,11.198-12.648,19.705-12.648      c10.663,0,19.578,7.598,21.373,17.927c0.591-0.081,1.178-0.122,1.758-0.122c7.434,0,13.48,6.047,13.48,13.48      C90.663,56.599,84.616,62.646,77.183,62.646z"/></g></g></g></g></svg>