<?xml version="1.0" encoding="utf-8"?>
<!-- Generated by IcoMoon.io -->
<!DOCTYPE svg PUBLIC "-//W3C//DTD SVG 1.1//EN" "http://www.w3.org/Graphics/SVG/1.1/DTD/svg11.dtd">
<svg version="1.1" xmlns="http://www.w3.org/2000/svg" xmlns:xlink="http://www.w3.org/1999/xlink" width="1024" height="1024" viewBox="0 0 1024 1024">
<g id="icomoon-ignore">
</g>
<path d="M227.232 483.269c-56.845 13.107-99.232 64.079-99.232 124.731 0 70.692 57.534 128 128.090 128h543.82c70.742 0 128.090-57.451 128.090-128 0-60.078-41.554-110.489-97.34-124.273v0c0.884-6.449 1.34-13.035 1.34-19.727 0-79.529-64.471-144-144-144-39.217 0-74.773 15.677-100.742 41.107-31.71-62.374-96.494-105.107-171.258-105.107-106.039 0-192 85.961-192 192 0 12.048 1.11 23.836 3.232 35.269v0zM863.979 461.265c56.585 24.664 96.021 81.082 96.021 146.735 0 88.186-71.626 160-159.982 160h-544.036c-88.542 0-159.982-71.634-159.982-160 0-65.628 39.669-122.189 96.381-146.831v0c-0.253-4.357-0.381-8.748-0.381-13.169 0-123.712 100.288-224 224-224 73.534 0 138.793 35.433 179.633 90.157 26.849-16.586 58.49-26.157 92.367-26.157 96.289 0 174.518 77.324 175.979 173.265v0 0z"></path>
</svg>
