<svg xmlns="http://www.w3.org/2000/svg" xmlns:xlink="http://www.w3.org/1999/xlink" version="1.1" x="0px" y="0px" viewBox="0 0 100 100" enable-background="new 0 0 100 100" xml:space="preserve"><g><path d="M75.575,50.664c-0.444,0-0.894,0.027-1.345,0.081c-1.643-8.897-9.364-15.42-18.584-15.42c-1.543,0-3.051,0.2-4.506,0.56   c-2.477-3.998-6.803-6.438-11.57-6.438c-7.514,0-13.626,6.112-13.626,13.624c-0.001,0.524,0.032,1.047,0.092,1.566   c-6.118,1.966-10.562,7.707-10.562,14.47c0,8.38,6.817,15.198,15.197,15.198h44.903c6.519,0,11.821-5.303,11.821-11.82   C87.396,55.967,82.094,50.664,75.575,50.664z M28.944,43.072c0-5.859,4.767-10.625,10.626-10.625c3.475,0,6.646,1.667,8.623,4.43   c-4.161,1.797-7.619,5.055-9.613,9.257c-2.372-1.445-5.117-2.226-7.906-2.226c-0.568,0-1.127,0.037-1.679,0.098   C28.968,43.695,28.944,43.384,28.944,43.072z M75.575,71.305H30.672c-6.726,0-12.197-5.472-12.197-12.198   c0-6.727,5.473-12.2,12.199-12.2c2.805,0,5.445,0.932,7.637,2.695c0.379,0.306,0.879,0.408,1.351,0.274   c0.468-0.133,0.842-0.484,1.004-0.943c2.244-6.345,8.266-10.608,14.981-10.608c8.22,0,15.023,6.161,15.826,14.331   c0.043,0.437,0.275,0.833,0.636,1.084c0.36,0.251,0.813,0.332,1.236,0.221c5.817-1.515,11.053,2.935,11.052,8.524   C84.396,67.349,80.439,71.305,75.575,71.305z"/><path d="M39.583,26.013c0.828,0,1.5-0.671,1.5-1.5V12.805c0-0.829-0.672-1.5-1.5-1.5s-1.5,0.671-1.5,1.5v11.708   C38.083,25.342,38.755,26.013,39.583,26.013z"/><path d="M22.509,43.086c0-0.829-0.672-1.5-1.5-1.5H9.305c-0.828,0-1.5,0.671-1.5,1.5s0.672,1.5,1.5,1.5h11.704   C21.837,44.586,22.509,43.915,22.509,43.086z"/><path d="M25.39,31.013c0.293,0.292,0.677,0.439,1.061,0.439s0.768-0.146,1.061-0.439c0.586-0.586,0.586-1.536,0-2.122l-8.278-8.276   c-0.586-0.585-1.535-0.585-2.121,0s-0.586,1.536,0,2.122L25.39,31.013z"/><path d="M52.717,31.452c0.384,0,0.768-0.146,1.061-0.439l8.277-8.278c0.586-0.586,0.586-1.536,0-2.121   c-0.586-0.586-1.535-0.586-2.121,0l-8.277,8.278c-0.586,0.586-0.586,1.536,0,2.121C51.949,31.306,52.333,31.452,52.717,31.452z"/></g></svg>