<svg xmlns="http://www.w3.org/2000/svg" xmlns:xlink="http://www.w3.org/1999/xlink" version="1.1" x="0px" y="0px" viewBox="0 0 100 100" enable-background="new 0 0 100 100" xml:space="preserve"><path d="M74.37,58.316c0,0-40.925-0.019-49.233,0S7.804,48.712,7.804,38.572c0-10.888,8.858-19.746,19.746-19.746  c1.261,0,2.517,0.121,3.752,0.359C33.932,11.21,41.529,5.604,50.06,5.604c10.888,0,19.745,8.858,19.745,19.746  c0,0.716-0.039,1.429-0.115,2.137c1.446-0.432,2.95-0.654,4.466-0.654c8.68,0,15.742,7.062,15.742,15.742  c0,7.903-5.951,14.534-13.608,15.587L74.37,58.316z M27.549,54.479l46.792-0.01c6.462-0.1,11.72-5.435,11.72-11.894  c0-6.564-5.341-11.905-11.905-11.905c-2.141,0-4.254,0.589-6.109,1.704l-4.345,2.61l1.527-4.833c0.49-1.55,0.739-3.166,0.739-4.801  c0-8.772-7.137-15.908-15.908-15.908c-7.405,0-13.936,5.241-15.53,12.463l-0.445,2.015l-1.978-0.59  c-1.48-0.442-3.013-0.666-4.557-0.666c-8.772,0-15.908,7.136-15.908,15.908c0,8.676,6.793,15.658,15.466,15.895L27.549,54.479z   M32.121,80.242c0.788-0.312,1.172-1.205,0.859-1.993l-6.332-15.925c-0.313-0.787-1.207-1.172-1.993-0.858  c-0.788,0.312-1.173,1.205-0.859,1.993l6.332,15.925c0.239,0.601,0.816,0.968,1.427,0.968  C31.743,80.352,31.935,80.316,32.121,80.242z M48.109,80.242c0.788-0.312,1.172-1.205,0.859-1.993l-6.332-15.925  c-0.313-0.787-1.206-1.172-1.993-0.858c-0.788,0.312-1.173,1.205-0.859,1.993l6.331,15.925c0.24,0.601,0.817,0.968,1.427,0.968  C47.731,80.352,47.923,80.316,48.109,80.242z M64.098,80.242c0.788-0.312,1.173-1.205,0.859-1.993l-6.331-15.925  c-0.313-0.787-1.207-1.172-1.993-0.858c-0.788,0.312-1.173,1.205-0.859,1.993l6.331,15.925c0.239,0.601,0.815,0.968,1.427,0.968  C63.72,80.352,63.912,80.316,64.098,80.242z M80.086,80.242c0.789-0.312,1.173-1.205,0.859-1.993l-6.331-15.925  c-0.313-0.787-1.206-1.172-1.993-0.858c-0.788,0.312-1.173,1.205-0.859,1.993l6.332,15.925c0.238,0.601,0.815,0.968,1.426,0.968  C79.708,80.352,79.9,80.316,80.086,80.242z M45.807,94.824c0.788-0.313,1.172-1.205,0.859-1.994l-6.331-15.924  c-0.313-0.788-1.207-1.173-1.993-0.859c-0.788,0.313-1.173,1.205-0.859,1.994l6.331,15.924c0.24,0.602,0.817,0.969,1.427,0.969  C45.429,94.934,45.621,94.898,45.807,94.824z M61.795,94.824c0.788-0.313,1.174-1.205,0.86-1.994l-6.332-15.924  c-0.312-0.788-1.206-1.173-1.993-0.859s-1.172,1.205-0.858,1.994l6.331,15.924c0.238,0.602,0.815,0.969,1.426,0.969  C61.418,94.934,61.609,94.898,61.795,94.824z M77.784,94.824c0.788-0.313,1.173-1.205,0.859-1.994l-6.332-15.924  c-0.312-0.788-1.206-1.173-1.992-0.859c-0.789,0.313-1.173,1.205-0.86,1.994l6.332,15.924c0.239,0.602,0.816,0.969,1.426,0.969  C77.406,94.934,77.598,94.898,77.784,94.824z"/></svg>