<svg xmlns="http://www.w3.org/2000/svg" xmlns:xlink="http://www.w3.org/1999/xlink" version="1.1" x="0px" y="0px" viewBox="0 0 100 100" enable-background="new 0 0 100 100" xml:space="preserve"><g><g><g><path fill="none" stroke="#000000" stroke-width="3" stroke-linecap="round" stroke-linejoin="round" stroke-miterlimit="10" d="     M37.087,60.207"/><path d="M78.02,61.707H62.628c-0.829,0-1.5-0.672-1.5-1.5s0.671-1.5,1.5-1.5H78.02c5.779,0,10.48-4.701,10.48-10.479     s-4.702-10.479-10.48-10.479c-0.861,0-1.753,0.119-2.651,0.353c-0.424,0.113-0.876,0.029-1.236-0.221     c-0.36-0.251-0.592-0.647-0.635-1.084c-0.943-9.607-8.943-16.853-18.61-16.853c-7.899,0-14.978,5.013-17.616,12.475     c-0.162,0.459-0.536,0.81-1.004,0.943c-0.467,0.133-0.97,0.03-1.35-0.274c-2.587-2.081-5.705-3.182-9.017-3.182     c-7.94,0-14.4,6.46-14.4,14.401c0,7.94,6.459,14.4,14.399,14.4h11.188c0.829,0,1.5,0.672,1.5,1.5s-0.671,1.5-1.5,1.5H25.899     c-9.594,0-17.399-7.806-17.399-17.4s7.806-17.401,17.4-17.401c3.283,0,6.514,0.945,9.281,2.69     c3.509-7.642,11.198-12.652,19.706-12.652c10.663,0,19.578,7.598,21.374,17.927c0.591-0.081,1.179-0.122,1.758-0.122     c7.433,0,13.48,6.047,13.48,13.479S85.453,61.707,78.02,61.707z"/></g></g><path d="M50.001,77.65c-5.815,0-10.547-4.731-10.547-10.547c0-3.722,2.197-7.468,4.522-11.435   c2.225-3.794,4.525-7.718,4.525-11.292c0-0.828,0.671-1.5,1.5-1.5s1.5,0.672,1.5,1.5c0,3.574,2.3,7.498,4.524,11.292   c2.325,3.967,4.521,7.713,4.521,11.435C60.547,72.919,55.816,77.65,50.001,77.65z M50.001,50.741   c-0.938,2.182-2.198,4.332-3.437,6.445c-2.113,3.604-4.11,7.01-4.11,9.917c0,4.161,3.386,7.547,7.547,7.547   c4.161,0,7.546-3.386,7.546-7.547c0-2.907-1.996-6.313-4.11-9.917C52.198,55.073,50.938,52.923,50.001,50.741z"/></g></svg>