<svg xmlns="http://www.w3.org/2000/svg" xmlns:xlink="http://www.w3.org/1999/xlink" version="1.1" x="0px" y="0px" viewBox="0 0 100 100" enable-background="new 0 0 100 100" xml:space="preserve"><g><path d="M78.02,34.748c-0.579,0-1.167,0.041-1.758,0.122c-1.795-10.329-10.71-17.927-21.373-17.927   c-8.508,0-16.195,5.009-19.705,12.648c-2.774-1.764-5.947-2.687-9.283-2.687c-9.595,0-17.4,7.807-17.4,17.401s7.806,17.4,17.4,17.4   h6.85c0.828,0,1.5-0.672,1.5-1.5s-0.672-1.5-1.5-1.5H25.9c-7.94,0-14.4-6.46-14.4-14.4c0-7.941,6.46-14.401,14.4-14.401   c3.312,0,6.43,1.101,9.017,3.182c0.379,0.305,0.884,0.407,1.351,0.274c0.468-0.134,0.842-0.484,1.004-0.943   c2.638-7.462,9.718-12.475,17.617-12.475c9.667,0,17.667,7.245,18.608,16.853c0.043,0.437,0.275,0.833,0.635,1.084   c0.361,0.251,0.814,0.335,1.236,0.221c0.899-0.233,1.791-0.353,2.651-0.353c5.779,0,10.48,4.701,10.48,10.479   s-4.701,10.479-10.48,10.479H67.252c-0.828,0-1.5,0.672-1.5,1.5s0.672,1.5,1.5,1.5H78.02c7.434,0,13.48-6.047,13.48-13.479   S85.453,34.748,78.02,34.748z"/><path d="M64.492,51.84c-0.413-0.719-1.333-0.964-2.049-0.549l-1.901,1.098l0.237-0.885c0.214-0.801-0.261-1.623-1.061-1.838   c-0.794-0.207-1.623,0.261-1.838,1.061l-1.015,3.784L51.5,57.609v-6.197l2.77-2.77c0.586-0.586,0.586-1.535,0-2.121   s-1.535-0.586-2.121,0L51.5,47.17v-2.197c0-0.828-0.672-1.5-1.5-1.5s-1.5,0.672-1.5,1.5v2.197l-0.648-0.648   c-0.586-0.586-1.535-0.586-2.121,0s-0.586,1.535,0,2.121l2.77,2.77v6.197l-5.366-3.099l-1.013-3.783   c-0.215-0.802-1.04-1.27-1.837-1.062c-0.801,0.215-1.275,1.037-1.062,1.837l0.237,0.887l-1.903-1.099   c-0.716-0.415-1.635-0.17-2.049,0.549c-0.414,0.718-0.169,1.635,0.549,2.049l1.904,1.1l-0.887,0.237   c-0.8,0.215-1.274,1.037-1.061,1.838c0.18,0.67,0.786,1.111,1.448,1.111c0.129,0,0.26-0.017,0.39-0.051l3.784-1.015L47,60.207   l-5.365,3.098l-3.784-1.014c-0.796-0.209-1.622,0.261-1.837,1.062c-0.214,0.8,0.261,1.622,1.062,1.837l0.885,0.237l-1.903,1.099   c-0.718,0.414-0.963,1.331-0.549,2.049c0.277,0.481,0.782,0.75,1.3,0.75c0.255,0,0.513-0.064,0.749-0.201l1.903-1.099l-0.237,0.887   c-0.214,0.8,0.261,1.622,1.062,1.837c0.13,0.034,0.26,0.051,0.389,0.051c0.662,0,1.269-0.441,1.448-1.112l1.013-3.783l5.366-3.099   v6.197l-2.77,2.77c-0.586,0.586-0.586,1.535,0,2.121s1.535,0.586,2.121,0l0.648-0.648v2.197c0,0.828,0.672,1.5,1.5,1.5   s1.5-0.672,1.5-1.5v-2.197l0.648,0.648c0.293,0.293,0.677,0.439,1.061,0.439s0.768-0.146,1.061-0.439   c0.586-0.586,0.586-1.535,0-2.121l-2.77-2.77v-6.197l5.366,3.099l1.013,3.783c0.18,0.671,0.786,1.112,1.448,1.112   c0.129,0,0.259-0.017,0.389-0.051c0.801-0.215,1.275-1.037,1.062-1.837l-0.237-0.887l1.903,1.099   c0.236,0.137,0.494,0.201,0.749,0.201c0.518,0,1.022-0.269,1.3-0.75c0.414-0.718,0.169-1.635-0.549-2.049l-1.903-1.099l0.887-0.237   c0.801-0.215,1.275-1.037,1.062-1.837c-0.215-0.801-1.04-1.271-1.837-1.062l-3.786,1.014L53,60.207l5.365-3.098l3.784,1.014   c0.13,0.034,0.26,0.051,0.389,0.051c0.662,0,1.269-0.441,1.448-1.112c0.214-0.8-0.261-1.622-1.062-1.837l-0.885-0.237l1.903-1.099   C64.661,53.475,64.906,52.558,64.492,51.84z"/></g></svg>