<svg xmlns="http://www.w3.org/2000/svg" xmlns:xlink="http://www.w3.org/1999/xlink" version="1.1" x="0px" y="0px" viewBox="0 0 100 100" enable-background="new 0 0 100 100" xml:space="preserve"><g><g><path d="M50,86.5c-0.828,0-1.5-0.671-1.5-1.5V71.469c0-0.829,0.672-1.5,1.5-1.5s1.5,0.671,1.5,1.5V85    C51.5,85.829,50.828,86.5,50,86.5z"/><path d="M50,30.032c-0.828,0-1.5-0.671-1.5-1.5V15c0-0.829,0.672-1.5,1.5-1.5s1.5,0.671,1.5,1.5v13.532    C51.5,29.361,50.828,30.032,50,30.032z"/><path d="M85,51.5H71.467c-0.828,0-1.5-0.671-1.5-1.5s0.672-1.5,1.5-1.5H85c0.828,0,1.5,0.671,1.5,1.5S85.828,51.5,85,51.5z"/><path d="M28.53,51.5H15c-0.828,0-1.5-0.671-1.5-1.5s0.672-1.5,1.5-1.5h13.53c0.828,0,1.5,0.671,1.5,1.5S29.358,51.5,28.53,51.5z"/><path d="M74.748,76.251c-0.384,0-0.768-0.146-1.061-0.439l-9.567-9.57c-0.586-0.586-0.586-1.536,0-2.122    c0.586-0.585,1.535-0.585,2.121,0l9.567,9.57c0.586,0.586,0.586,1.536,0,2.122C75.516,76.104,75.132,76.251,74.748,76.251z"/><path d="M34.819,36.32c-0.384,0-0.768-0.146-1.061-0.439l-9.567-9.566c-0.586-0.585-0.586-1.535,0-2.121s1.535-0.586,2.121,0    l9.567,9.566c0.586,0.585,0.586,1.535,0,2.121C35.587,36.173,35.203,36.32,34.819,36.32z"/><path d="M65.181,36.32c-0.384,0-0.768-0.146-1.061-0.439c-0.586-0.585-0.586-1.535,0-2.121l9.567-9.568    c0.586-0.586,1.535-0.586,2.121,0c0.586,0.585,0.586,1.535,0,2.121l-9.567,9.568C65.948,36.173,65.564,36.32,65.181,36.32z"/><path d="M25.252,76.249c-0.384,0-0.768-0.146-1.061-0.439c-0.586-0.586-0.586-1.536,0-2.121l9.567-9.566    c0.586-0.586,1.535-0.586,2.121,0s0.586,1.536,0,2.121l-9.567,9.566C26.02,76.102,25.636,76.249,25.252,76.249z"/></g><path d="M50,65.561c-8.579,0-15.56-6.98-15.56-15.56S41.421,34.44,50,34.44c8.581,0,15.562,6.98,15.562,15.56   S58.581,65.561,50,65.561z M50,37.44c-6.926,0-12.56,5.634-12.56,12.56s5.634,12.56,12.56,12.56c6.927,0,12.562-5.634,12.562-12.56   S56.927,37.44,50,37.44z"/></g>></svg>