<svg xmlns="http://www.w3.org/2000/svg" xmlns:xlink="http://www.w3.org/1999/xlink" version="1.1" x="0px" y="0px" viewBox="0 0 100 100" enable-background="new 0 0 100 100" xml:space="preserve"><path d="M35.991,86.5c-0.221,0-0.445-0.049-0.655-0.151c-0.68-0.331-1.008-1.117-0.764-1.833l9.483-27.813l-6.203-0.001  c-0.55,0-1.056-0.301-1.318-0.785c-0.263-0.483-0.239-1.072,0.061-1.533L62.75,14.182c0.413-0.634,1.233-0.86,1.914-0.531  c0.68,0.331,1.008,1.117,0.764,1.833l-9.48,27.811h6.2c0.55,0,1.056,0.301,1.318,0.785c0.263,0.484,0.239,1.072-0.061,1.533  L37.25,85.818C36.964,86.256,36.485,86.5,35.991,86.5z M40.618,53.703l5.534,0.001c0.484,0,0.938,0.233,1.219,0.627  c0.282,0.394,0.356,0.898,0.2,1.356l-6.278,18.414l18.089-27.806h-5.531c-0.484,0-0.938-0.233-1.22-0.627s-0.356-0.899-0.2-1.357  l6.278-18.416L40.618,53.703z"/></svg>